<svg width="34" height="44" viewBox="0 0 34 44" fill="none" xmlns="http://www.w3.org/2000/svg">
<path d="M16.0039 8.51603C16.0039 5.50635 19.6952 4.05857 21.7413 6.26573L31.8867 17.2097C33.2477 18.6778 34.0039 20.6058 34.0039 22.6077V34.8375C34.0039 37.8472 30.3126 39.2949 28.2665 37.0878L17.855 25.8569C16.6651 24.5732 16.0039 22.8875 16.0039 21.1371V8.51603Z" fill="#4E45E5"/>
<path d="M0 9.16251C0 6.15283 3.69128 4.70506 5.7374 6.91222L16.1489 18.1431C17.3388 19.4268 18 21.1125 18 22.8628V35.484C18 38.4936 14.3087 39.9414 12.2626 37.7343L1.85114 26.5033C0.661173 25.2197 0 23.534 0 21.7836V9.16251Z" fill="#061525"/>
</svg>
